<svg width="124" height="24" viewBox="0 0 124 24" fill="none" xmlns="http://www.w3.org/2000/svg">
<path d="M10.1669 23.8638C9.62439 23.8638 9.20126 23.7119 8.89748 23.4081C8.61539 23.1044 8.47435 22.6812 8.47435 22.1388V3.52102H1.57407C1.11839 3.52102 0.760355 3.40168 0.499968 3.16299C0.23958 2.9026 0.109386 2.54457 0.109386 2.08889C0.109386 1.63321 0.23958 1.28603 0.499968 1.04734C0.760355 0.808651 1.11839 0.689306 1.57407 0.689306H18.7271C19.2045 0.689306 19.5734 0.808651 19.8338 1.04734C20.0942 1.28603 20.2243 1.63321 20.2243 2.08889C20.2243 2.54457 20.0942 2.9026 19.8338 3.16299C19.5734 3.40168 19.2045 3.52102 18.7271 3.52102H11.8268V22.1388C11.8268 22.6812 11.6858 23.1044 11.4037 23.4081C11.1433 23.7119 10.731 23.8638 10.1669 23.8638ZM24.4663 23.8638C23.9239 23.8638 23.5007 23.7119 23.1969 23.4081C22.9149 23.1044 22.7738 22.6812 22.7738 22.1388V2.41438C22.7738 1.8502 22.9257 1.42707 23.2295 1.14498C23.5333 0.841199 23.9564 0.689306 24.4989 0.689306H32.278C34.7517 0.689306 36.6612 1.30773 38.0065 2.54457C39.3518 3.75971 40.0245 5.47393 40.0245 7.68723C40.0245 9.92223 39.3518 11.6581 38.0065 12.895C36.6612 14.1101 34.7517 14.7177 32.278 14.7177H26.1589V22.1388C26.1589 22.6812 26.0178 23.1044 25.7357 23.4081C25.4536 23.7119 25.0305 23.8638 24.4663 23.8638ZM26.1589 12.0162H31.7897C33.4172 12.0162 34.6432 11.6581 35.4677 10.9421C36.314 10.2043 36.7371 9.11936 36.7371 7.68723C36.7371 6.2768 36.314 5.21355 35.4677 4.49748C34.6432 3.75971 33.4172 3.39083 31.7897 3.39083H26.1589V12.0162ZM53.9316 23.8638C53.3891 23.8638 52.966 23.7119 52.6622 23.4081C52.3801 23.1044 52.2391 22.6812 52.2391 22.1388V2.18654C52.2391 1.62236 52.3801 1.19923 52.6622 0.917146C52.966 0.61336 53.3891 0.461467 53.9316 0.461467C54.4741 0.461467 54.8864 0.61336 55.1684 0.917146C55.4722 1.19923 55.6241 1.62236 55.6241 2.18654V22.1388C55.6241 22.6812 55.4831 23.1044 55.201 23.4081C54.9189 23.7119 54.4958 23.8638 53.9316 23.8638ZM71.2337 23.9289C68.9119 23.9289 66.9264 23.4515 65.2773 22.4968C63.6282 21.542 62.3588 20.1858 61.4691 18.4282C60.6012 16.6489 60.1672 14.555 60.1672 12.1464C60.1672 10.3454 60.4167 8.72878 60.9158 7.29665C61.4149 5.84282 62.1309 4.60597 63.064 3.58612C64.0188 2.54457 65.1796 1.75256 66.5467 1.21008C67.9354 0.667607 69.4977 0.396369 71.2337 0.396369C72.5139 0.396369 73.7399 0.569962 74.9116 0.917146C76.1051 1.26433 77.1358 1.76341 78.0037 2.41438C78.3726 2.65306 78.6113 2.946 78.7198 3.29319C78.85 3.61867 78.8717 3.93331 78.7849 4.23709C78.7198 4.54088 78.5788 4.80126 78.3618 5.01825C78.1448 5.21355 77.8627 5.32204 77.5155 5.34374C77.19 5.36544 76.832 5.24609 76.4414 4.98571C75.7254 4.44323 74.9333 4.0418 74.0654 3.78141C73.1974 3.52102 72.2861 3.39083 71.3313 3.39083C69.6822 3.39083 68.2935 3.73801 67.1651 4.43238C66.0368 5.10505 65.1796 6.09235 64.5938 7.39429C64.0079 8.69623 63.715 10.2803 63.715 12.1464C63.715 14.0125 64.0079 15.6074 64.5938 16.931C65.1796 18.2329 66.0368 19.2311 67.1651 19.9255C68.2935 20.5981 69.6822 20.9345 71.3313 20.9345C72.2861 20.9345 73.1974 20.8043 74.0654 20.5439C74.955 20.2618 75.7905 19.8495 76.5716 19.307C76.9622 19.0683 77.3094 18.9599 77.6132 18.9816C77.9387 19.0033 78.2099 19.1117 78.4269 19.307C78.6439 19.5023 78.7849 19.7519 78.85 20.0557C78.9368 20.3377 78.926 20.6415 78.8175 20.967C78.7307 21.2708 78.5245 21.5312 78.199 21.7482C77.3094 22.4642 76.257 23.0067 75.0418 23.3756C73.8267 23.7445 72.5573 23.9289 71.2337 23.9289ZM82.3052 23.8638C81.8713 23.8638 81.5241 23.7662 81.2637 23.5709C81.0033 23.3756 80.8514 23.1152 80.808 22.7897C80.7646 22.4642 80.8297 22.0954 81.0033 21.6831L89.8239 1.8936C90.0409 1.37282 90.3122 1.00394 90.6376 0.786952C90.9848 0.569962 91.3646 0.461467 91.7768 0.461467C92.1674 0.461467 92.5255 0.569962 92.8509 0.786952C93.1981 1.00394 93.4802 1.37282 93.6972 1.8936L102.518 21.6831C102.713 22.0954 102.789 22.4751 102.746 22.8223C102.702 23.1478 102.561 23.4081 102.323 23.6034C102.084 23.777 101.748 23.8638 101.314 23.8638C100.836 23.8638 100.456 23.7445 100.174 23.5058C99.8923 23.2671 99.6427 22.8982 99.4257 22.3991L97.1473 17.1263L98.6771 18.0376H84.8115L86.3087 17.1263L84.0629 22.3991C83.8459 22.9199 83.6072 23.2997 83.3468 23.5383C83.0864 23.7553 82.7392 23.8638 82.3052 23.8638ZM91.7117 4.43238L86.7969 16.0847L85.9832 15.3036H97.4728L96.7242 16.0847L91.7768 4.43238H91.7117ZM108.094 23.8638C107.552 23.8638 107.129 23.7119 106.825 23.4081C106.543 23.1044 106.402 22.6812 106.402 22.1388V2.41438C106.402 1.8502 106.554 1.42707 106.857 1.14498C107.161 0.841199 107.584 0.689306 108.127 0.689306H115.906C118.38 0.689306 120.289 1.30773 121.634 2.54457C122.98 3.75971 123.652 5.47393 123.652 7.68723C123.652 9.92223 122.98 11.6581 121.634 12.895C120.289 14.1101 118.38 14.7177 115.906 14.7177H109.787V22.1388C109.787 22.6812 109.646 23.1044 109.364 23.4081C109.082 23.7119 108.658 23.8638 108.094 23.8638ZM109.787 12.0162H115.418C117.045 12.0162 118.271 11.6581 119.096 10.9421C119.942 10.2043 120.365 9.11936 120.365 7.68723C120.365 6.2768 119.942 5.21355 119.096 4.49748C118.271 3.75971 117.045 3.39083 115.418 3.39083H109.787V12.0162Z" fill="#4B77AC"/>
</svg>
